# xmcd
#
# Track frame offsets: 
#        182
#        29417
#        44612
#        72520
#        101262
#        120955
#        130762
#        155412
#        180455
#        192900
#        221770
#        238770
#
# Disc length: 3643 seconds
#
# Revision: 3
# Processed by: cddbd v1.5.2PL0 Copyright (c) Steve Scherf et al.
# Submitted via: ExactAudioCopy v1.3
#
DISCID=a50e390c
DTITLE=Beau Jocque and The Zydeco Hi-Rollers - Pick Up on This!
DYEAR=1994
DGENRE=Zydeco
TTITLE0=Give It To Me
TTITLE1=Gardez Donci (Look At That)
TTITLE2=Zydeco Boogie Woogie
TTITLE3=Mardi Gras Blues
TTITLE4=Comin' In
TTITLE5=Don't Tell Your Mama
TTITLE6=Yesterday
TTITLE7=Do Right Sometime
TTITLE8=Hucklebuck
TTITLE9=Pick Up On This
TTITLE10=Chere Mignonne (Dear Cute One)
TTITLE11=Hi-Rollers - Theme-Low Rider
EXTD=
EXTT0=
EXTT1=
EXTT2=
EXTT3=
EXTT4=
EXTT5=
EXTT6=
EXTT7=
EXTT8=
EXTT9=
EXTT10=
EXTT11=
PLAYORDER=
